<?xml version="1.0" encoding="utf-8"?>
<!-- Generator: Adobe Illustrator 22.1.0, SVG Export Plug-In . SVG Version: 6.00 Build 0)  -->
<svg version="1.1" id="Layer_1" xmlns="http://www.w3.org/2000/svg" xmlns:xlink="http://www.w3.org/1999/xlink" x="0px" y="0px"
	 width="15px" height="13.8px" viewBox="0 0 15 13.8" style="enable-background:new 0 0 15 13.8;" xml:space="preserve">
<style type="text/css">
	.st0{fill:#78909C;}
</style>
<path class="st0" d="M15,12.4c0,0.8-0.7,1.4-1.4,1.4H1.4c-0.8,0-1.4-0.7-1.4-1.4v-11C-0.1,0.7,0.6,0,1.4,0h12.2
	c0.8,0,1.4,0.7,1.4,1.4L15,12.4L15,12.4z M6.9,12.8V2.3H1.1v10.1c0,0.1,0.1,0.3,0.3,0.3L6.9,12.8L6.9,12.8z M13.9,2.3H8v10.4h5.5
	c0.1,0,0.3-0.1,0.3-0.3L13.9,2.3L13.9,2.3z"/>
</svg>
