<?xml version="1.0" encoding="utf-8"?>
<!-- Generator: Adobe Illustrator 22.1.0, SVG Export Plug-In . SVG Version: 6.00 Build 0)  -->
<svg version="1.1" id="Layer_1" xmlns="http://www.w3.org/2000/svg" xmlns:xlink="http://www.w3.org/1999/xlink" x="0px" y="0px"
	 width="17.5px" height="17.5px" viewBox="0 0 17.5 17.5" style="enable-background:new 0 0 17.5 17.5;" xml:space="preserve">
<style type="text/css">
	.st0{fill:#58595D;}
</style>
<path class="st0" d="M12.5,11l5,5L16,17.5l-5-5v-0.8l-0.3-0.3c-0.6,0.5-1.2,0.9-1.9,1.1C8.1,12.9,7.3,13,6.5,13
	c-1.2,0-2.3-0.3-3.3-0.9c-1-0.6-1.8-1.4-2.4-2.3C0.3,8.8,0,7.7,0,6.5c0-1.2,0.3-2.3,0.9-3.3c0.6-1,1.4-1.8,2.4-2.4
	C4.3,0.3,5.3,0,6.5,0c1.2,0,2.3,0.3,3.3,0.9c1,0.6,1.7,1.4,2.3,2.4c0.6,1,0.9,2.1,0.9,3.3c0,0.8-0.1,1.6-0.4,2.3
	c-0.3,0.7-0.6,1.4-1.1,1.9l0.3,0.3H12.5z M6.5,11c0.8,0,1.6-0.2,2.3-0.6c0.7-0.4,1.2-1,1.6-1.6C10.8,8.1,11,7.3,11,6.5
	s-0.2-1.6-0.6-2.3C10,3.6,9.5,3,8.8,2.6C8.1,2.2,7.3,2,6.5,2S5,2.2,4.3,2.6C3.6,3,3,3.6,2.6,4.2C2.2,4.9,2,5.7,2,6.5
	s0.2,1.6,0.6,2.3c0.4,0.7,1,1.2,1.6,1.6C5,10.8,5.7,11,6.5,11z"/>
</svg>
