<svg height="12" viewBox="0 0 14 12" width="14" xmlns="http://www.w3.org/2000/svg"><path d="m26.7626269 22.0214627v1.8560597c0 .5123498-.4156801.9280299-.9280299.9280299h-9.2802986c-.5123498 0-.9280298-.4156801-.9280298-.9280299v-1.8560597c0-.5123498.41568-.9280298.9280298-.9280298h9.2802986c.5123498 0 .9280299.41568.9280299.9280298zm0-4.9494926v1.8560598c0 .5123498-.4156801.9280298-.9280299.9280298h-9.2802986c-.5123498 0-.9280298-.41568-.9280298-.9280298v-1.8560598c0-.5123498.41568-.9280298.9280298-.9280298h9.2802986c.5123498 0 .9280299.41568.9280299.9280298zm0-4.9494925v1.8560597c0 .5123498-.4156801.9280298-.9280299.9280298h-9.2802986c-.5123498 0-.9280298-.41568-.9280298-.9280298v-1.8560597c0-.5123498.41568-.9280299.9280298-.9280299h9.2802986c.5123498 0 .9280299.4156801.9280299.9280299z" fill="#58595d" fill-rule="evenodd" transform="matrix(0 1 -1 0 25.194448 -15.194448)"/></svg>