<?xml version="1.0" encoding="utf-8"?>
<!-- Generator: Adobe Illustrator 22.1.0, SVG Export Plug-In . SVG Version: 6.00 Build 0)  -->
<svg version="1.1" id="Layer_1" xmlns="http://www.w3.org/2000/svg" xmlns:xlink="http://www.w3.org/1999/xlink" x="0px" y="0px"
	 width="50px" height="29.5px" viewBox="0 0 50 29.5" style="enable-background:new 0 0 50 29.5;" xml:space="preserve">
<style type="text/css">
	.st0{fill:#FFFFFF;}
	.st1{fill:#F37021;}
	.st2{fill:#CC004C;}
	.st3{fill:#6460AA;}
	.st4{fill:#0089D0;}
	.st5{fill:#0DB14B;}
	.st6{fill:#FCB711;}
</style>
<g transform="">
	<path class="st0" d="M25,3.8c-0.8-1.9-2.7-4-6.2-3.8c-4.5,0.5-5.9,4.8-5.3,7.4C11.7,6.3,8.6,5.7,6,8c-3.5,3.5-1.6,8.1,0.3,9.3
		c-2.1-0.2-5.4,1.2-6.1,4.9c-0.8,4.6,2.7,7.3,6.1,7.3h37.8c3.9,0,6.1-3.4,5.9-6.6c-0.4-4.2-4.2-5.8-6.3-5.5c1.8-1,4.1-5.6,0.5-9.2
		c-2.8-2.7-6.4-1.7-7.7-0.5c0.7-2.2-0.4-6.9-5-7.6C31.2,0,30.9,0,30.6,0C27.1,0,25.5,2.6,25,3.8"/>
	<path class="st1" d="M6.6,8.7c-2,1.8-2.7,5.9,0.9,8.3l14.3,9.9l-7-16C13.4,7.2,9.5,6.3,6.6,8.7"/>
	<path class="st2" d="M19,1c-2.3,0-5.8,2.8-4.3,7.1l7.2,17l2.5-17.9C25,2.7,21.7,0.7,19,1"/>
	<path class="st3" d="M25.6,6.4h1.4c0,0,0.7,0,0.8,0.3c-0.5,0.4-2,0.5-1.8,2.8L28.3,25l7.1-17c1.5-3.8-1.6-7-4.3-7.1
		c-0.1,0-0.3,0-0.4,0C28.2,0.9,25.5,2.6,25.6,6.4"/>
	<path class="st4" d="M35.2,11l-6.8,15.8l14.4-9.9c3.3-2.4,2.8-6.1,0.9-8c-0.8-0.9-2.2-1.6-3.7-1.6C38.2,7.4,36.3,8.3,35.2,11"/>
	<path class="st5" d="M41.1,19.1l-13.5,9.4h16.6c3.4,0,5.6-3.5,4.6-6.7c-0.7-2-2.6-3.6-4.8-3.6C43.1,18.2,42.1,18.5,41.1,19.1"/>
	<path class="st6" d="M6.3,28.6h16.4L9.1,19.2c-3.1-2-6.6-0.8-7.9,2.5C0.2,25.5,2.9,28.6,6.3,28.6"/>
</g>
</svg>
