<?xml version="1.0" encoding="utf-8"?>
<!-- Generator: Adobe Illustrator 22.1.0, SVG Export Plug-In . SVG Version: 6.00 Build 0)  -->
<svg version="1.1" id="Layer_1" xmlns="http://www.w3.org/2000/svg" xmlns:xlink="http://www.w3.org/1999/xlink" x="0px" y="0px"
	 width="20.4px" height="23px" viewBox="0 0 20.4 23" style="enable-background:new 0 0 20.4 23;" xml:space="preserve">
<style type="text/css">
	.st0{fill:none;stroke:#000000;stroke-linecap:round;stroke-linejoin:round;stroke-miterlimit:10;}
	.st1{fill:none;stroke:#000000;stroke-linecap:round;stroke-miterlimit:10;}
</style>
<g>
	<path class="st0" d="M6.9,17.3c1.2,1.9,2.1,3,2.1,3c0.8,1.4,0,2.2-0.8,2.2H0.5c0,0,3.2-6.4,3.7-7.5"/>
	<line class="st1" x1="10.6" y1="9.9" x2="13.5" y2="7.1"/>
	<path class="st1" d="M17.1,8c0.2-2-0.8-4.5-4.5-4.7"/>
	<path class="st1" d="M19.9,8.2c0.1-3.6-3-7.7-7.6-7.7"/>
	<path class="st0" d="M4.9,4.6c-3,3-3,8.1,0.2,11.2S13.2,19,16.2,16c-3-3.3-2.7-2.9-5.9-6C7.2,6.8,7.5,7.1,4.9,4.6z"/>
</g>
</svg>
