<?xml version="1.0" encoding="utf-8"?>
<!-- Generator: Adobe Illustrator 22.1.0, SVG Export Plug-In . SVG Version: 6.00 Build 0)  -->
<svg version="1.1" id="Layer_1" xmlns="http://www.w3.org/2000/svg" xmlns:xlink="http://www.w3.org/1999/xlink" x="0px" y="0px"
	 width="23.6px" height="19.2px" viewBox="0 0 23.6 19.2" style="enable-background:new 0 0 23.6 19.2;" xml:space="preserve">
<g id="nav_x5F__x5F_icon--fill">
	<path d="M21.3,10.1h-0.8V8.6c0,0,0-0.1,0-0.1h0.6c1.3,0,2.3-1,2.3-2.3V2.3c0-1.3-1-2.3-2.3-2.3H2.3C1,0,0,1,0,2.3v3.9
		c0,1.3,1,2.3,2.3,2.3h0.8c0,0,0,0.1,0,0.1v1.5H2.5c-1.3,0-2.3,1-2.3,2.3v3.9c0,1.3,1,2.3,2.3,2.3h0.3v0.3c0,0.2,0.1,0.3,0.3,0.3
		h1.7c0.2,0,0.3-0.1,0.3-0.3v-0.3h13.8v0.3c0,0.2,0.1,0.3,0.3,0.3h1.7c0.2,0,0.3-0.1,0.3-0.3v-0.3h0.1c1.3,0,2.3-1,2.3-2.3v-3.9
		C23.6,11.1,22.6,10.1,21.3,10.1z M2.3,7.5C1.6,7.5,1,6.9,1,6.2V2.3C1,1.6,1.6,1,2.3,1h18.8c0.7,0,1.3,0.6,1.3,1.3v3.9
		c0,0.7-0.6,1.3-1.3,1.3H2.3z M4.1,8.5h15.4c0,0,0,0.1,0,0.1v1.5H4.1L4.1,8.5C4.1,8.6,4.1,8.5,4.1,8.5z M22.6,16.3
		c0,0.7-0.6,1.3-1.3,1.3H2.5c-0.7,0-1.3-0.6-1.3-1.3v-3.9c0-0.7,0.6-1.3,1.3-1.3h18.8c0.7,0,1.3,0.6,1.3,1.3V16.3z"/>
	<circle cx="4" cy="14.4" r="0.8"/>
	<circle cx="6.8" cy="14.4" r="0.8"/>
	<circle cx="9.6" cy="14.4" r="0.8"/>
	<circle cx="20" cy="14.4" r="0.8"/>
	<circle cx="20" cy="4.2" r="0.8"/>
	<circle cx="9.6" cy="4.2" r="0.8"/>
	<circle cx="6.8" cy="4.2" r="0.8"/>
	<circle cx="4" cy="4.2" r="0.8"/>
</g>
</svg>
