<?xml version="1.0" encoding="utf-8"?>
<!-- Generator: Adobe Illustrator 22.1.0, SVG Export Plug-In . SVG Version: 6.00 Build 0)  -->
<svg version="1.1" id="Layer_1" xmlns="http://www.w3.org/2000/svg" xmlns:xlink="http://www.w3.org/1999/xlink" x="0px" y="0px"
	 width="16.1px" height="18px" viewBox="0 0 16.1 18" style="enable-background:new 0 0 16.1 18;" xml:space="preserve">
<style type="text/css">
	.st0{fill:#78909C;}
</style>
<g>
	<g>
		<circle class="st0" cx="11.6" cy="17.5" r="0.5"/>
		<path class="st0" d="M12.7,10.8c-0.1,0.2,0,0.5,0.2,0.7c0.2,0.1,0.5,0,0.7-0.2c0.4-0.7,0.5-1.5,0.5-2.3V8c0-3.4-2.7-6.1-6.1-6.1
			S1.9,4.6,1.9,8v1c0,3.9,3.2,7.1,7.1,7.1c0.4,0,0.9,0,1.3-0.1c0.3,0,0.4-0.3,0.4-0.6c0-0.3-0.3-0.4-0.6-0.4
			c-0.4,0.1-0.8,0.1-1.1,0.1c-3.4,0-6.1-2.7-6.1-6.1V8c0-2.8,2.3-5.1,5.1-5.1s5.1,2.3,5.1,5.1v1C13.1,9.6,13,10.2,12.7,10.8z"/>
		<path class="st0" d="M0.5,16.5C0.8,16.5,1,16.3,1,16V8c0-3.9,3.2-7.1,7.1-7.1s7.1,3.2,7.1,7.1v1c0,1.8-0.8,3.6-2.3,4.7
			c-0.2,0.2-0.2,0.5-0.1,0.7c0.2,0.2,0.5,0.2,0.7,0.1c1.7-1.3,2.6-3.3,2.6-5.5V8c0-4.4-3.6-8-8-8s-8,3.6-8,8v8
			C0,16.3,0.2,16.5,0.5,16.5z"/>
		<path class="st0" d="M12.2,8c0-2.3-1.9-4.1-4.1-4.1S4,5.8,4,8v1c0,2.8,2.3,5.1,5.1,5.1c0.5,0,0.9-0.1,1.3-0.2
			c0.3-0.1,0.4-0.3,0.3-0.6c-0.1-0.3-0.3-0.4-0.6-0.3c-0.4,0.1-0.7,0.1-1.1,0.1c-2.3,0-4.1-1.9-4.1-4.1V8c0-1.7,1.4-3.2,3.2-3.2
			s3.2,1.4,3.2,3.2v8c0,0.3,0.2,0.5,0.5,0.5s0.5-0.2,0.5-0.5V8H12.2z"/>
		<circle class="st0" cx="0.5" cy="17.5" r="0.5"/>
	</g>
</g>
</svg>
