<?xml version="1.0" encoding="utf-8"?>
<!-- Generator: Adobe Illustrator 22.1.0, SVG Export Plug-In . SVG Version: 6.00 Build 0)  -->
<svg version="1.1" id="Layer_1" xmlns="http://www.w3.org/2000/svg" xmlns:xlink="http://www.w3.org/1999/xlink" x="0px" y="0px"
	 width="21px" height="21px" viewBox="0 0 21 21" style="enable-background:new 0 0 21 21;" xml:space="preserve">
<style type="text/css">
	.st0{fill:#78909C;}
</style>
<g>
	<g>
		<g>
			<path class="st0" d="M18.3,14.7V4.4H2.7v10.3H1.8v0.8l0.8,1h16.1l0.8-1v-0.8C19.3,14.7,18.3,14.7,18.3,14.7z M17.9,4.8V6H3.1V4.8
				H17.9z M3.1,6.4h14.8v8.3H3.1V6.4z M18.9,15.4l-0.5,0.8H2.7l-0.5-0.8v-0.3h0.5h16.2V15.4z"/>
			<path class="st0" d="M18.6,16.7H2.4l-0.8-1.1v-1h0.9V4.3h15.9v10.3h1v1L18.6,16.7z M2.6,16.4h15.9l0.7-1v-0.6h-1V4.6H2.8v10.3
				H1.9v0.6L2.6,16.4z M18.4,16.3H2.6L2,15.5v-0.4h17v0.4L18.4,16.3z M2.7,16h15.5l0.5-0.7v-0.1H2.3v0.1L2.7,16z M18,14.8H3V6.3
				h15.1v8.5H18z M3.2,14.6h14.6V6.5H3.2V14.6z M18,6.1H3V4.7h15.1v1.4H18z M3.2,5.9h14.6V5H3.2V5.9z"/>
		</g>
		<g>
			<polygon class="st0" points="12.4,9.5 13.9,10.8 12.4,12 12.7,12.3 14.5,10.8 12.7,9.2 			"/>
			<path class="st0" d="M12.6,12.5L12.2,12l1.4-1.2l-1.4-1.2l0.4-0.5l2.1,1.7L12.6,12.5z M12.6,12L12.6,12l1.8-1.2l-1.7-1.4
				l-0.1,0.1l1.5,1.3L12.6,12z"/>
		</g>
		<g>
			<polygon class="st0" points="8.3,9.2 6.5,10.8 8.3,12.3 8.6,12 7.1,10.8 8.6,9.5 			"/>
			<path class="st0" d="M8.3,12.5l-2.1-1.7l2.1-1.7l0.4,0.5l-1.4,1.2L8.7,12L8.3,12.5z M6.6,10.8l1.7,1.3L8.4,12l-1.5-1.2l1.5-1.3
				L8.3,9.4L6.6,10.8z"/>
		</g>
		<g>
			
				<rect x="7.5" y="10.5" transform="matrix(0.4431 -0.8965 0.8965 0.4431 -3.7344 15.3664)" class="st0" width="6.1" height="0.4"/>
			<path class="st0" d="M9.4,13.7l-0.6-0.3l0.1-0.1l2.8-5.6L12.3,8l-0.1,0.1L9.4,13.7z M9.1,13.3L9.1,13.3l2.7-5.2L11.7,8L9.1,13.3z
				"/>
		</g>
		<g>
			<rect x="3.7" y="5.2" class="st0" width="0.4" height="0.4"/>
			<path class="st0" d="M4.2,5.7H3.5V5h0.7V5.7z M3.8,5.5H4V5.3H3.8V5.5z"/>
		</g>
		<g>
			<rect x="5.4" y="5.2" class="st0" width="0.4" height="0.4"/>
			<path class="st0" d="M6,5.7H5.3V5H6V5.7z M5.6,5.5h0.2V5.3H5.6V5.5z"/>
		</g>
		<g>
			<rect x="4.5" y="5.2" class="st0" width="0.4" height="0.4"/>
			<path class="st0" d="M5.1,5.7H4.4V5h0.7V5.7z M4.7,5.5h0.2V5.3H4.7V5.5z"/>
		</g>
	</g>
</g>
</svg>
