<?xml version="1.0" encoding="utf-8"?>
<!-- Generator: Adobe Illustrator 22.1.0, SVG Export Plug-In . SVG Version: 6.00 Build 0)  -->
<svg version="1.1" id="Layer_1" xmlns="http://www.w3.org/2000/svg" xmlns:xlink="http://www.w3.org/1999/xlink" x="0px" y="0px"
	 width="21px" height="21px" viewBox="0 0 21 21" style="enable-background:new 0 0 21 21;" xml:space="preserve">
<style type="text/css">
	.st0{fill:#78909C;}
</style>
<g>
	<path class="st0" d="M16.7,17.5l1.1-1.1h-6.5v-5.2l-1.6,1.6l-0.6-0.6l1.1-1.1H6.4v0.1c-0.3,1-1.2,1.7-2.3,1.7
		c-1.3,0-2.4-1.1-2.4-2.4c0-1.3,1.1-2.4,2.4-2.4c1.1,0,2.1,0.8,2.3,1.9v0.1H10L9.1,9.2l0.6-0.6l1.5,1.5V4.6h6.5l-1.1-1.1L17.2,3
		l1.9,1.9L19.2,5l-2,2l-0.6-0.6l0.9-0.9H12v9.9h5.5l-0.7-0.6l0.6-0.6l1.8,1.8l0.1,0.1l-2,2L16.7,17.5z M4.2,9.1
		c-0.8,0-1.5,0.7-1.5,1.5s0.7,1.5,1.5,1.5s1.5-0.7,1.5-1.5S5,9.1,4.2,9.1z"/>
	<path class="st0" d="M4.2,11.3c-0.4,0-0.7-0.3-0.7-0.7S3.8,10,4.2,10c0.4,0,0.7,0.3,0.7,0.7S4.6,11.3,4.2,11.3z M4.2,10.1
		c-0.3,0-0.5,0.2-0.5,0.5s0.2,0.5,0.5,0.5s0.5-0.2,0.5-0.5S4.4,10.1,4.2,10.1z"/>
</g>
</svg>
