<?xml version="1.0" encoding="utf-8"?>
<!-- Generator: Adobe Illustrator 22.1.0, SVG Export Plug-In . SVG Version: 6.00 Build 0)  -->
<svg version="1.1" id="Layer_1" xmlns="http://www.w3.org/2000/svg" xmlns:xlink="http://www.w3.org/1999/xlink" x="0px" y="0px"
	 width="21px" height="21px" viewBox="0 0 21 21" style="enable-background:new 0 0 21 21;" xml:space="preserve">
<style type="text/css">
	.st0{fill:#78909C;}
</style>
<g>
	<g>
		<g>
			<path class="st0" d="M8.9,17.1v-6.8l4.6,3.4L8.9,17.1z M9.8,12v3.3l2.3-1.7L9.8,12z"/>
		</g>
		<g>
			<path class="st0" d="M9.3,14.1H5.4c-2.2,0-3.9-1.7-3.9-3.9s1.7-3.9,3.9-3.9h1.5v0.9H5.4c-1.7,0-3,1.3-3,3s1.3,3,3,3h3.9V14.1z"/>
		</g>
		<g>
			<path class="st0" d="M11.6,9.8c-0.1,0-0.2,0-0.2-0.1L8,7.2C7.9,7.1,7.8,7,7.8,6.9S7.9,6.6,8,6.6l3.4-2.5C11.5,4,11.7,4,11.9,4
				c0.2,0.1,0.2,0.2,0.2,0.4v5c0,0.2-0.1,0.3-0.2,0.4C11.7,9.8,11.6,9.8,11.6,9.8z M8.8,6.8l2.3,1.7V5.1L8.8,6.8z"/>
		</g>
		<g>
			<path class="st0" d="M15.5,14.1H14v-0.8h1.5c1.7,0,3-1.3,3-3s-1.3-3-3-3h-3.9v-1h3.9c2.2,0,3.9,1.7,3.9,3.9
				C19.4,12.4,17.6,14.1,15.5,14.1z"/>
		</g>
	</g>
</g>
</svg>
