<?xml version="1.0" encoding="utf-8"?>
<!-- Generator: Adobe Illustrator 22.1.0, SVG Export Plug-In . SVG Version: 6.00 Build 0)  -->
<svg version="1.1" id="Layer_1" xmlns="http://www.w3.org/2000/svg" xmlns:xlink="http://www.w3.org/1999/xlink" x="0px" y="0px"
	 width="21px" height="21px" viewBox="0 0 21 21" style="enable-background:new 0 0 21 21;" xml:space="preserve">
<style type="text/css">
	.st0{fill:#78909C;}
</style>
<g>
	<g>
		<g>
			<g>
				<path class="st0" d="M9.5,18.5H1.9V2.5h7.6V18.5z M2.6,17.6h6.1V3.2H2.6V17.6z"/>
			</g>
		</g>
		<g>
			<rect x="3.4" y="5.2" class="st0" width="4.5" height="0.8"/>
		</g>
		<g>
			<rect x="3.4" y="7.9" class="st0" width="4.5" height="0.8"/>
		</g>
		<g>
			<rect x="3.4" y="10.5" class="st0" width="4.5" height="0.8"/>
		</g>
		<g>
			<rect x="3.4" y="13.1" class="st0" width="4.5" height="0.8"/>
		</g>
	</g>
	<g>
		<g>
			<g>
				<path class="st0" d="M19.1,18.5h-7.6V2.5h7.6V18.5z M12.2,17.6h6.1V3.2h-6.1V17.6z"/>
			</g>
		</g>
		<g>
			<rect x="13" y="5.2" class="st0" width="4.5" height="0.8"/>
		</g>
		<g>
			<rect x="13" y="7.9" class="st0" width="4.5" height="0.8"/>
		</g>
		<g>
			<rect x="13" y="10.5" class="st0" width="4.5" height="0.8"/>
		</g>
		<g>
			<rect x="13" y="13.1" class="st0" width="4.5" height="0.8"/>
		</g>
	</g>
</g>
</svg>
