<?xml version="1.0" encoding="utf-8"?>
<!-- Generator: Adobe Illustrator 22.1.0, SVG Export Plug-In . SVG Version: 6.00 Build 0)  -->
<svg version="1.1" id="Layer_1" xmlns="http://www.w3.org/2000/svg" xmlns:xlink="http://www.w3.org/1999/xlink" x="0px" y="0px"
	 width="21px" height="21px" viewBox="0 0 21 21" style="enable-background:new 0 0 21 21;" xml:space="preserve">
<style type="text/css">
	.st0{fill:#78909C;}
</style>
<g>
	<g>
		<path class="st0" d="M13.2,11.4c0,1.2,0.9,2.1,2.1,2.1s2.1-0.9,2.1-2.1c0-1.2-0.9-2.1-2.1-2.1C14.1,9.3,13.2,10.2,13.2,11.4z
			 M16.7,11.4c0,0.8-0.6,1.4-1.4,1.4c-0.8,0-1.4-0.6-1.4-1.4s0.6-1.4,1.4-1.4C16,9.9,16.7,10.6,16.7,11.4z"/>
		<path class="st0" d="M1.5,10.5c0,2.3,0.9,4.5,2.7,6c1.5,1.4,3.5,2.2,5.6,2.2l0,0c0.1,0,0.2,0,0.3,0l0,0c1.4,0,2.8-0.5,4-1.2
			c0.5,0.6,0.9,1,0.9,1l0.2,0.3l0.2-0.3c0.2-0.2,4.1-4.3,4.1-7.2l0,0c0-1.6-0.9-3-2.2-3.7c-0.5-1.2-1.2-2.2-2.1-3.1
			c-1.5-1.4-3.5-2.2-5.6-2.2l0,0l0,0c-2.1,0-4,0.8-5.6,2.2C2.5,6.1,1.5,8.3,1.5,10.5z M6,6.2c-0.4,1.2-0.6,2.5-0.6,4H2.2
			c0.1-1.9,0.9-3.7,2.2-5C4.9,5.6,5.5,5.9,6,6.2z M4.6,5L4.6,5L4.6,5z M10.1,18.1v-3.5c0.8,0,1.5,0.2,2.2,0.4
			c0.1,0.1,0.2,0.3,0.3,0.4C11.9,17,11,17.9,10.1,18.1z M9.4,13.9c-0.9,0-1.9,0.3-2.8,0.6C6.3,13.4,6,12.1,6,10.8h3.4
			C9.4,10.8,9.4,13.9,9.4,13.9z M9.4,14.6v3.5c-1-0.2-1.9-1.3-2.6-2.9C7.7,14.8,8.5,14.6,9.4,14.6z M10.1,13.9v-3.1H11
			c0,0.2,0,0.3,0,0.5l0,0c0,0.9,0.4,1.9,0.9,2.9C11.2,14.1,10.6,14,10.1,13.9z M11.1,10.2h-1V7.1c1,0,1.9-0.3,2.8-0.6
			c0.1,0.3,0.2,0.7,0.3,1C12.1,8.1,11.4,9.1,11.1,10.2z M10.1,6.5V3c1,0.2,1.9,1.2,2.6,2.9C11.8,6.2,10.9,6.5,10.1,6.5z M11.7,3.3
			c1,0.3,2,0.8,2.9,1.5l0,0c-0.4,0.3-0.9,0.6-1.3,0.9C12.8,4.6,12.3,3.8,11.7,3.3z M9.4,3v3.5c-0.9,0-1.8-0.2-2.6-0.6
			C7.4,4.3,8.4,3.2,9.4,3z M9.4,7.1v3.1H6c0-1.3,0.3-2.6,0.6-3.7C7.5,6.9,8.4,7.1,9.4,7.1z M2.2,10.9h3.2c0,1.5,0.3,2.8,0.6,4
			c-0.6,0.3-1.1,0.6-1.6,1.1C3.1,14.6,2.3,12.8,2.2,10.9z M4.9,16.4c0.4-0.3,0.9-0.6,1.3-0.9c0.4,1,0.9,1.8,1.5,2.4
			C6.7,17.6,5.7,17,4.9,16.4z M10.9,18.5h-0.1C10.8,18.5,10.8,18.5,10.9,18.5z M11.1,18.4c0.1,0,0.1-0.1,0.2-0.1
			C11.2,18.3,11.1,18.3,11.1,18.4z M11.7,17.8C11.7,17.8,11.7,17.9,11.7,17.8c0.4-0.4,0.8-1,1.2-1.8c0.3,0.3,0.5,0.6,0.7,0.9
			C13.1,17.3,12.4,17.6,11.7,17.8z M19.2,11.4h-0.3H19.2L19.2,11.4z M18.9,11.4c0,2.2-2.8,5.6-3.7,6.5c-0.9-0.9-3.7-4.3-3.7-6.5
			c0-2,1.7-3.7,3.7-3.7S18.9,9.3,18.9,11.4z M16.5,7.2C16.1,7.1,15.7,7,15.2,7s-1,0.1-1.5,0.3c-0.1-0.3-0.2-0.7-0.3-1
			C14,6,14.5,5.7,15,5.2C15.7,5.8,16.1,6.5,16.5,7.2z M6.2,5.6C5.7,5.3,5.3,5,4.9,4.7C5.7,4,6.7,3.5,7.7,3.2
			C7.1,3.8,6.6,4.6,6.2,5.6z"/>
	</g>
</g>
</svg>
