<?xml version="1.0" encoding="utf-8"?>
<!-- Generator: Adobe Illustrator 22.1.0, SVG Export Plug-In . SVG Version: 6.00 Build 0)  -->
<svg version="1.1" id="Layer_1" xmlns="http://www.w3.org/2000/svg" xmlns:xlink="http://www.w3.org/1999/xlink" x="0px" y="0px"
	 width="21px" height="21px" viewBox="0 0 21 21" style="enable-background:new 0 0 21 21;" xml:space="preserve">
<style type="text/css">
	.st0{fill:#78909C;}
</style>
<g>
	<g>
		<g>
			<path class="st0" d="M4.2,16.8c-3.5-3.5-3.5-9.1,0-12.5l0.5,0.5c-3.2,3.2-3.2,8.3,0,11.5L4.2,16.8z"/>
		</g>
		<g>
			<path class="st0" d="M16.7,16.8l-0.5-0.5c1.5-1.5,2.4-3.6,2.4-5.7c0-2.2-0.8-4.2-2.4-5.7l0.5-0.5c1.7,1.7,2.6,3.9,2.6,6.3
				C19.3,12.9,18.4,15.1,16.7,16.8z"/>
		</g>
		<g>
			<path class="st0" d="M6.3,14.7c-2.2-2.2-2.2-6,0-8.3l0.5,0.5c-2,2.1-2,5.3,0,7.3L6.3,14.7z"/>
		</g>
		<g>
			<path class="st0" d="M14.6,14.7l-0.5-0.5c2-2.1,2-5.3,0-7.3l0.5-0.5C16.9,8.6,16.9,12.3,14.6,14.7z"/>
		</g>
		<g>
			<path class="st0" d="M10.5,13.4c-1.6,0-2.9-1.3-2.9-2.9s1.3-2.9,2.9-2.9s2.9,1.3,2.9,2.9S12.1,13.4,10.5,13.4z M10.5,8.4
				c-1.2,0-2.1,1-2.1,2.1s1,2.1,2.1,2.1s2.1-1,2.1-2.1S11.6,8.4,10.5,8.4z"/>
		</g>
	</g>
</g>
</svg>
