<?xml version="1.0" encoding="utf-8"?>
<!-- Generator: Adobe Illustrator 22.1.0, SVG Export Plug-In . SVG Version: 6.00 Build 0)  -->
<svg version="1.1" id="Layer_1" xmlns="http://www.w3.org/2000/svg" xmlns:xlink="http://www.w3.org/1999/xlink" x="0px" y="0px"
	 width="21px" height="21px" viewBox="0 0 21 21" style="enable-background:new 0 0 21 21;" xml:space="preserve">
<style type="text/css">
	.st0{fill:#78909C;stroke:#FFFFFF;stroke-width:0.75;stroke-linecap:round;stroke-linejoin:round;stroke-miterlimit:10;}
</style>
<g>
	<path class="st0" d="M1.5,7.5v9c0,1.2,1,2.2,2.2,2.2h10.5c1.2,0,2.2-1,2.2-2.2v-9C17.3,7.5,18,6.8,18,6V3.8c0-0.8-0.7-1.5-1.5-1.5
		h-15C0.7,2.3,0,2.9,0,3.8V6C0,6.8,0.7,7.5,1.5,7.5z M15,16.5c0,0.4-0.3,0.7-0.7,0.7H3.7c-0.4,0-0.7-0.3-0.7-0.7v-9h12V16.5z
		 M1.5,3.8h15V6h-15V3.8z"/>
	<path class="st0" d="M8.2,13.5h1.5c1.2,0,2.2-1,2.2-2.2V9.8C12,9.3,11.7,9,11.2,9c-0.4,0-0.7,0.3-0.7,0.7v1.5
		c0,0.4-0.3,0.7-0.7,0.7H8.2c-0.4,0-0.7-0.3-0.7-0.7V9.8C7.5,9.3,7.2,9,6.7,9C6.3,9,6,9.3,6,9.8v1.5C6,12.5,7,13.5,8.2,13.5z"/>
</g>
</svg>
